<svg xmlns="http://www.w3.org/2000/svg" width="1200" height="630" viewBox="0 0 1200 630" role="img" aria-labelledby="title desc">
  <title id="title">Plantilla social de jugador de Minuto 106</title>
  <desc id="desc">Fondo de alto contraste con paneles protegidos por una zona segura exterior.</desc>
  <defs>
    <linearGradient id="background" x1="0" y1="0" x2="1" y2="1">
      <stop offset="0" stop-color="#650018"/>
      <stop offset="0.46" stop-color="#080a10"/>
      <stop offset="1" stop-color="#10264f"/>
    </linearGradient>
    <radialGradient id="centreGlow" cx="52%" cy="46%" r="58%">
      <stop offset="0" stop-color="#f4c95d" stop-opacity=".19"/>
      <stop offset="1" stop-color="#f4c95d" stop-opacity="0"/>
    </radialGradient>
    <linearGradient id="leftPanel" x1="0" y1="0" x2="0" y2="1">
      <stop offset="0" stop-color="#181b24"/>
      <stop offset="1" stop-color="#0c0f16"/>
    </linearGradient>
    <linearGradient id="rightPanel" x1="0" y1="0" x2="0" y2="1">
      <stop offset="0" stop-color="#101622"/>
      <stop offset="1" stop-color="#090d15"/>
    </linearGradient>
    <filter id="shadow" x="-15%" y="-20%" width="130%" height="150%">
      <feDropShadow dx="0" dy="18" stdDeviation="24" flood-color="#000" flood-opacity=".42"/>
    </filter>
  </defs>
  <rect width="1200" height="630" fill="url(#background)"/>
  <rect width="1200" height="630" fill="url(#centreGlow)"/>
  <path d="M0 0h430L300 630H0Z" fill="#960025" fill-opacity=".22"/>
  <path d="M1200 0H790l120 630h290Z" fill="#267db9" fill-opacity=".18"/>
  <rect x="32" y="32" width="1136" height="566" rx="34" fill="none" stroke="#fff" stroke-opacity=".13" stroke-width="2"/>
  <g filter="url(#shadow)">
    <rect x="52" y="52" width="690" height="526" rx="30" fill="url(#leftPanel)" stroke="#f4c95d" stroke-opacity=".24" stroke-width="2"/>
    <rect x="766" y="52" width="382" height="526" rx="30" fill="url(#rightPanel)" stroke="#fff" stroke-opacity=".14" stroke-width="2"/>
  </g>
  <rect x="82" y="80" width="196" height="6" rx="3" fill="#f4c95d"/>
  <rect x="82" y="546" width="310" height="5" rx="2.5" fill="#f4c95d" fill-opacity=".4"/>
  <g fill="none" stroke="#fff" stroke-opacity=".1" stroke-width="2">
    <path d="M957 154 1069 236 1026 369 888 369 845 236Z" stroke="#f4c95d" stroke-opacity=".32"/>
    <path d="M957 184 1040 245 1008 344 906 344 874 245Z"/>
    <path d="M957 214 1012 254 991 319 923 319 902 254Z"/>
    <path d="M957 244 984 264 974 296 940 296 930 264Z"/>
    <path d="M957 244V154M957 244l112-8M957 244l69 125M957 244l-69 125M957 244l-112-8"/>
  </g>
  <circle cx="1090" cy="103" r="28" fill="none" stroke="#5ab4ef" stroke-opacity=".32" stroke-width="3"/>
  <circle cx="1090" cy="103" r="13" fill="none" stroke="#5ab4ef" stroke-opacity=".42" stroke-width="3"/>
</svg>
