<svg xmlns="http://www.w3.org/2000/svg" width="390" height="844" viewBox="0 0 390 844">
  <defs>
    <linearGradient id="bg" x1="0" x2="1"><stop stop-color="#5a0017"/><stop offset="0.48" stop-color="#090a0f"/><stop offset="1" stop-color="#17336b"/></linearGradient>
    <linearGradient id="track" x1="0" x2="1"><stop stop-color="#ef1742" offset="0.74"/><stop stop-color="#58afe8" offset="0.74"/></linearGradient>
    <style>
      text{font-family:Inter,Arial,sans-serif;fill:#fff}.eyebrow{fill:#f4c95d;font-size:10px;font-weight:900;letter-spacing:1.6px}.muted{fill:#9da1ac;font-size:10px}.title{font-size:19px;font-weight:900}.nick{font-size:12px;font-weight:850}.meta{fill:#b3b7c1;font-size:10px}.rank{fill:#f4c95d;font-size:12px;font-weight:900}.diff{font-size:10px;font-weight:900}.card{fill:#111319;stroke:#ffffff24;stroke-width:1}.row{fill:#ffffff09}.leader{fill:#f4c95d0d;stroke:#f4c95d55}.flag-es{fill:#aa151b}.flag-es2{fill:#f1bf00}.flag-ar{fill:#75aadb}.flag-ar2{fill:#fff}
    </style>
  </defs>
  <rect width="390" height="844" fill="url(#bg)"/>
  <rect width="390" height="58" fill="#08090cf4"/>
  <text x="18" y="35" class="eyebrow">MINUTO 106</text>
  <text x="282" y="35" class="muted">Jugar  Ranking</text>

  <text x="117" y="92" class="eyebrow">EL MINUTO 106 SIGUE EN JUEGO</text>
  <text x="98" y="157" style="font-size:61px;font-weight:950;letter-spacing:-4px">10.600</text>
  <rect x="16" y="183" width="358" height="112" rx="20" class="card"/>
  <text x="34" y="216" class="nick">🇪🇸 España</text><text x="286" y="216" class="nick">Argentina 🇦🇷</text>
  <rect x="50" y="233" width="290" height="28" rx="14" fill="url(#track)"/>
  <text x="168" y="252" class="nick">75% · 25%</text>
  <text x="111" y="280" class="muted">PUNTOS GLOBALES VERIFICADOS</text>
  <text x="32" y="316" class="eyebrow">SIN FRANJA DE ESTADÍSTICAS REDUNDANTES</text>

  <rect x="16" y="339" width="358" height="455" rx="22" class="card"/>
  <text x="34" y="372" class="eyebrow">TOP 10 GLOBAL VERIFICADO</text>
  <text x="34" y="402" class="title">Los más precisos</text>
  <text x="286" y="402" class="muted">30 intentos</text>
  <text x="34" y="427" class="muted">Nick, bandera y tiempo permanecen en una línea.</text>

  <g transform="translate(30 450)">
    <rect width="330" height="52" rx="12" class="leader"/>
    <text x="12" y="31" class="rank">#1</text><text x="43" y="31" class="nick">Yisucirst</text>
    <rect x="109" y="19" width="18" height="12" rx="2" class="flag-es"/><rect x="109" y="23" width="18" height="5" class="flag-es2"/>
    <text x="135" y="31" class="meta">10.604 s</text><text x="275" y="31" class="diff">±4 ms</text>
  </g>
  <g transform="translate(30 510)">
    <rect width="330" height="48" rx="12" class="row"/>
    <text x="12" y="29" class="rank">#2</text><text x="43" y="29" class="nick">Snogak</text>
    <rect x="96" y="17" width="18" height="12" rx="2" class="flag-ar"/><rect x="96" y="21" width="18" height="5" class="flag-ar2"/>
    <text x="122" y="29" class="meta">10.614 s</text><text x="268" y="29" class="diff">±14 ms</text>
  </g>
  <g transform="translate(30 566)">
    <rect width="330" height="48" rx="12" class="row"/>
    <text x="12" y="29" class="rank">#3</text><text x="43" y="29" class="nick">Chamuca</text>
    <rect x="103" y="17" width="18" height="12" rx="2" class="flag-es"/><rect x="103" y="21" width="18" height="5" class="flag-es2"/>
    <text x="129" y="29" class="meta">10.709 s</text><text x="263" y="29" class="diff">±109 ms</text>
  </g>
  <g transform="translate(30 622)">
    <rect width="330" height="48" rx="12" class="row"/>
    <text x="12" y="29" class="rank">#4</text><text x="43" y="29" class="nick">Ap</text>
    <rect x="63" y="17" width="18" height="12" rx="2" class="flag-es"/><rect x="63" y="21" width="18" height="5" class="flag-es2"/>
    <text x="89" y="29" class="meta">10.048 s</text><text x="262" y="29" class="diff">±552 ms</text>
  </g>
  <g transform="translate(30 678)">
    <rect width="330" height="48" rx="12" class="row"/>
    <text x="12" y="29" class="rank">#5</text><text x="43" y="29" class="nick">NombreMuyLargo…</text>
    <rect x="158" y="17" width="18" height="12" rx="2" class="flag-es"/><rect x="158" y="21" width="18" height="5" class="flag-es2"/>
    <text x="184" y="29" class="meta">11.287 s</text><text x="278" y="29" class="diff">±687</text>
  </g>
  <text x="34" y="758" class="muted">La bandera usa nombre accesible sin repetir el país visualmente.</text>
</svg>
