<svg xmlns="http://www.w3.org/2000/svg" viewBox="0 0 200 200" role="img" aria-labelledby="title desc"><title id="title">Balón de fútbol</title><desc id="desc">Balón de fútbol estilizado</desc><circle cx="100" cy="100" r="90" fill="#f7f7f7" stroke="#111319" stroke-width="8"/><path fill="#111319" d="M100 45l29 21-11 34H82L71 66l29-21ZM42 83l29-17 11 34-26 23-24-18 10-22Zm116 0-29-17-11 34 26 23 24-18-10-22ZM69 151l13-51h36l13 51-31 25-31-25Zm-13-28 13 28-20 8-17-34 24-2Zm88 0-13 28 20 8 17-34-24-2Z"/></svg>